<svg width="21" height="13" viewBox="0 0 21 13" fill="none" xmlns="http://www.w3.org/2000/svg">
<path d="M13.3333 1.38135H7.65039V11.5325H13.3333V1.38135Z" fill="#FF5A00"/>
<path d="M8.02842 6.45677C8.02842 4.39436 9.0036 2.5639 10.5 1.3812C9.39872 0.520303 8.00951 0 6.4942 0C2.90452 0 0 2.88778 0 6.45677C0 10.0258 2.90452 12.9135 6.4942 12.9135C8.00951 12.9135 9.39872 12.3932 10.5 11.5323C9.0015 10.3664 8.02842 8.51917 8.02842 6.45677Z" fill="#EB001B"/>
<path d="M21 6.45677C21 10.0258 18.0955 12.9135 14.5058 12.9135C12.9905 12.9135 11.6013 12.3932 10.5 11.5323C12.0153 10.3475 12.9716 8.51917 12.9716 6.45677C12.9716 4.39436 11.9964 2.5639 10.5 1.3812C11.5992 0.520303 12.9884 0 14.5037 0C18.0955 0 21 2.90659 21 6.45677Z" fill="#F79E1B"/>
</svg>
