<svg viewBox="0 0 126 26" fill="none" xmlns="http://www.w3.org/2000/svg">
    <path fill-rule="evenodd" clip-rule="evenodd" d="M4.7 17v8.2c0 .5-.2.8-.8.8H.8c-.6 0-.8-.3-.8-.8V.8C0 .2.2 0 .8 0H10c4.4.1 7.7 3.4 7.9 7.8 0 2.3-.4 4.5-1.9 6.3a7.9 7.9 0 01-6 2.9H4.7zm0-4A697.3 697.3 0 009 13c1.2.1 2.2-.4 3-1.3A5 5 0 0013 7c-.6-2-2-3.1-4.1-3.1H4.8V13zM34 25.2c.3.6.7 1 1.4.9H38c.8 0 1.1-.4.7-1.2L27.8.7c-.2-.5-.5-.6-1-.6-.4 0-.6.2-.8.6l-6 12.8-5.2 11.3c-.3.8 0 1.2.8 1.2h2.7c.8 0 1-.2 1.4-1l.4-.9 1.1-2.7c.1-.3.3-.4.7-.4h9.9c.4 0 .6 0 .7.4l1 2.6.5 1.1zm-10.8-8h7.3a2662 2662 0 01-3.7-8 1946 1946 0 00-3.6 8zM52.6.6L46.9 9l-1.7-2.4-4-6-.7-.4h-3.8c-.5 0-.8.5-.6 1L40.8 8a2842 2842 0 013.7 6v11c0 .8.2 1 .9 1h2.8c.8 0 1-.2 1-1V14.1c0-.4.1-.8.3-1.1l8-11.6c.2-.3.4-.6.2-1-.2-.3-.6-.3-1-.3H53.7c-.5 0-.8.1-1 .5zM126 21.8c0 2.3-2 4.2-4.2 4.2a4.2 4.2 0 01-4.2-4.2 4.2 4.2 0 017.2-3c.8.8 1.2 2 1.2 3zm-.5 0c0 2.1-1.7 3.7-3.8 3.7a3.7 3.7 0 01-3.6-3.8c0-2 1.7-3.6 3.8-3.5 2 0 3.6 1.7 3.6 3.7zm-3 .4l.4.5.7 1c-.4.2-.7 0-.8-.2l-.3-.4-.1-.3c-.4-.5-.8-.7-1.5-.5v1.5h-.5v-3.6h2c.5 0 .8.4.9.9 0 .5-.2.8-.7 1h-.1zm-1.2-.4h-.4v-1.2h1.4c.3 0 .5.3.5.6s-.2.5-.5.6h-1zM110.6 15.6l.4.7a7573 7573 0 014.7 8.8c0 .4-.2.8-.6.8h-4c-.3 0-.4-.3-.6-.6-1.4-3-3-6-4.3-9-.2-.3-.4-.4-.9-.4h-3c-.3 0-.5.1-.5.5V25c0 .9 0 1-1 1h-2.7c-.7 0-.9-.2-.9-.9V1c0-.7.2-.9.9-.9h10.2c3.8 0 6.9 2.5 7.5 6.1.8 3.9-.9 7.5-4.6 9.3l-.6.2zm-8.7-3.5h5.8c.7 0 1.4-.2 2-.6 1.3-1 2-3 1.5-4.8a3.7 3.7 0 00-3.8-2.9h-5.5v8.3zM64.7 3.8v7.3h8.7c.7 0 1 .2 1 1v2c0 .6-.3.8-1 .8h-8.7v7.3h10.4c.8 0 1 .2 1 1V25c0 .7-.2.9-.9.9H60.8c-.5 0-.7-.2-.8-.6V1.1c0-1 .2-1 1-1h14c1 0 1.1 0 1.1 1v1.8c0 .7-.2 1-1 1H64.8zm14 9.2V1c0-.8.2-1 1-1h14.2c.7 0 .9.2.9.9v2c0 .7-.2 1-.9 1H84c-.7 0-.7 0-.7.6v6c0 .5.1.6.5.6H92c1 0 1.1.1 1.1 1v2c0 .6-.2.8-.8.8h-8.4c-.3 0-.5 0-.5.5v6.3c0 .4.2.5.5.5h10c.8 0 1 .1 1 1v2c0 .6-.2.8-.9.8H79.7c-.8 0-1-.2-1-1V13z" fill="currentColor"></path>
  </svg>
