<svg width="71" height="14" viewBox="0 0 71 14" fill="none" xmlns="http://www.w3.org/2000/svg">
<g clip-path="url(#clip0_292_6)">
<path d="M13.4903 0C9.35381 0 6.06348 3.14558 6.06348 7C6.06348 10.8987 9.40083 14 13.4903 14C17.5797 14 20.917 10.8544 20.917 7C20.964 3.14558 17.5797 0 13.4903 0ZM13.4903 9.61391C11.9861 9.61391 10.7169 8.41772 10.7169 7C10.7169 5.58228 11.9861 4.38609 13.4903 4.38609C14.9944 4.38609 16.2635 5.58228 16.2635 7C16.2635 8.41772 15.0414 9.61391 13.4903 9.61391Z" fill="#8B3FFD"/>
<path d="M6.06364 2.03809V12.228H3.38435L0 2.03809H6.06364Z" fill="#8B3FFD"/>
<path d="M68.721 3.85449L67.0758 7.66462C67.0289 7.70892 67.0289 7.79751 67.0289 7.84183L66.9816 7.93042L66.9347 7.84183C66.9347 7.79751 66.8878 7.70892 66.8878 7.66462L65.2426 3.85449H63.1274L65.9006 10.3672L64.7257 12.8481H66.8408L70.7423 3.85449H68.721Z" fill="white"/>
<path d="M53.1156 4.20933C52.7395 3.9435 52.2695 3.76629 51.7054 3.72199C50.7655 3.63337 49.8725 3.9435 49.2614 4.51946V3.81061H47.334V10.3233H49.2614V6.91186C49.2614 6.15869 49.4022 5.93718 49.5433 5.75997C49.7783 5.40555 50.2013 5.22833 50.7185 5.22833C51.2354 5.22833 51.7054 5.44984 51.9407 5.80427C52.0815 6.0701 52.1284 6.42452 52.1284 6.60173C52.1284 7.17769 52.1284 10.3233 52.1284 10.3233H54.0558V6.38023C54.0558 5.36122 53.7267 4.65237 53.1156 4.20933Z" fill="white"/>
<path d="M43.6671 3.89883C42.7272 3.5887 41.6931 3.63302 40.7528 4.03174C40.1418 4.29758 39.5779 4.74059 39.2488 5.31655C38.9196 5.80389 38.7788 6.42415 38.7788 7.0887C38.7788 7.75325 38.9196 8.37351 39.2488 8.86085C39.5779 9.34819 40.001 9.79123 40.5648 10.0571C41.1289 10.3229 41.7869 10.5001 42.398 10.5001C42.7272 10.5001 43.056 10.4558 43.3852 10.3672C43.6671 10.2786 43.9493 10.19 44.2313 10.0571C44.7954 9.74694 45.2654 9.34819 45.5476 8.86085C45.8764 8.37351 46.0175 7.75325 46.0175 7.0887C46.0645 5.62668 45.1715 4.38617 43.6671 3.89883ZM44.2313 7.17732C44.1843 7.75325 43.9963 8.24059 43.6202 8.55072C43.3383 8.77226 42.9152 8.90517 42.398 8.94947C41.8811 8.94947 41.505 8.81655 41.1759 8.55072C40.8001 8.24059 40.612 7.75325 40.5648 7.17732C40.5179 6.51277 40.8001 5.9811 41.317 5.62668C41.5989 5.44947 41.975 5.31655 42.3511 5.31655C42.7741 5.31655 43.1033 5.44947 43.4321 5.62668C43.9963 5.93681 44.2782 6.51277 44.2313 7.17732Z" fill="white"/>
<path d="M36.5697 4.20902C36.1937 3.94322 35.7237 3.766 35.1595 3.72168C35.0657 3.72168 34.9246 3.72168 34.8307 3.72168C34.0785 3.72168 33.4205 4.03181 32.8564 4.65206L32.7625 4.78498H32.5744C32.4333 4.56347 32.2453 4.38626 32.0572 4.25334C31.6811 3.98751 31.2112 3.8103 30.647 3.766C29.754 3.67738 29.049 3.94322 28.4379 4.56347V3.89892H26.5107V10.4116H28.4379V7.00017V6.91155C28.4379 6.2027 28.532 6.02549 28.6729 5.80398C28.908 5.44953 29.331 5.22802 29.801 5.27232C30.2712 5.27232 30.6943 5.49386 30.9293 5.84828C31.1173 6.11408 31.1173 6.42421 31.1173 6.73434V10.3673H33.0444V6.86726C33.0444 6.2027 33.1383 5.9812 33.2794 5.75966C33.5144 5.40524 33.9374 5.22802 34.4077 5.22802C34.8776 5.22802 35.2537 5.44953 35.4887 5.80398C35.6298 6.02549 35.6767 6.29132 35.6767 6.46854C35.6767 6.55713 35.6767 6.64575 35.6767 6.69004V10.323H37.6038V6.33562C37.6038 5.9812 37.5569 5.62674 37.4627 5.31662C37.275 4.8736 36.9928 4.47485 36.5697 4.20902Z" fill="white"/>
<path d="M61.2943 8.37347C61.0124 8.6393 60.3541 9.12664 59.4611 9.17093C58.7089 9.21523 58.1451 8.99372 57.7221 8.595C57.534 8.41776 57.3929 8.15196 57.299 7.88613H62.6104V7.84183C62.6576 7.576 62.7045 7.35449 62.7045 7.08866C62.7045 6.86715 62.6576 6.55702 62.5634 6.15827C62.3285 5.4051 61.8585 4.82917 61.2474 4.38613C60.5422 3.89879 59.8842 3.76587 59.6961 3.76587C58.3331 3.54436 56.7818 4.12029 55.9827 5.31651C55.4186 6.15827 55.4658 7.00004 55.4658 7.26587C55.4658 7.576 55.5128 8.55068 56.3588 9.43677C57.346 10.4557 58.7089 10.5 59.132 10.5444C61.0124 10.5887 62.2815 9.48106 62.5634 9.25956L61.2943 8.37347ZM58.004 5.62664C58.2859 5.44943 58.6151 5.31651 59.0381 5.31651C59.4611 5.31651 59.7903 5.44943 60.1191 5.62664C60.4014 5.84815 60.6363 6.11398 60.7771 6.42411H57.3929C57.4399 6.11398 57.6748 5.80385 58.004 5.62664Z" fill="white"/>
</g>
<defs>
<clipPath id="clip0_292_6">
<rect width="71" height="14" fill="white"/>
</clipPath>
</defs>
</svg>
