<svg width="40" height="12" viewBox="0 0 40 12" fill="none" xmlns="http://www.w3.org/2000/svg">
<path fill-rule="evenodd" clip-rule="evenodd" d="M6.35515 1.30144C6.66963 1.29956 7.60422 1.21539 8.0001 2.55147C8.26676 3.45147 8.69155 4.92571 9.27445 6.97419H9.51184C10.137 4.81454 10.5664 3.3403 10.8001 2.55147C11.2001 1.20147 12.2001 1.30147 12.6001 1.30147L15.6862 1.30147V10.9014H12.5408V5.24402H12.3298L10.5764 10.9014H8.20988L6.45645 5.23983H6.24553V10.9014H3.1001V1.30147L6.35515 1.30144ZM20.203 1.30147V6.96311H20.4539L22.5868 2.30759C23.0008 1.38112 23.8832 1.30147 23.8832 1.30147H26.9271V10.9015H23.7159V5.23983H23.465L21.374 9.89536C20.9599 10.8176 20.0357 10.9015 20.0357 10.9015H16.9918V1.30147H20.203ZM38.0261 5.86345C37.5782 7.13275 36.1716 8.04178 34.6142 8.04178H31.2467V10.9015H28.1932V5.86345H38.0261Z" fill="#0F754E"/>
<path fill-rule="evenodd" clip-rule="evenodd" d="M34.7617 1.30176H28.0332C28.1933 3.43904 30.0339 5.2687 31.9393 5.2687H38.2385C38.602 3.49236 37.3506 1.30176 34.7617 1.30176Z" fill="url(#paint0_linear_496_5795)"/>
<defs>
<linearGradient id="paint0_linear_496_5795" x1="38.3003" y1="3.79713" x2="28.0332" y2="3.79713" gradientUnits="userSpaceOnUse">
<stop stop-color="#1F5CD7"/>
<stop offset="1" stop-color="#02AEFF"/>
</linearGradient>
</defs>
</svg>
