<svg width="32" height="10" viewBox="0 0 32 10" fill="none" xmlns="http://www.w3.org/2000/svg">
<g clip-path="url(#clip0_496_5783)">
<path d="M13.8666 9.85507H11.2744L12.8958 0.174805H15.4879L13.8666 9.85507Z" fill="#00579F"/>
<path d="M23.2638 0.412127C22.7525 0.216261 21.9415 0 20.9388 0C18.3788 0 16.5762 1.3181 16.5651 3.20257C16.5439 4.59294 17.8558 5.36518 18.837 5.82877C19.8399 6.30249 20.1808 6.61169 20.1808 7.03395C20.1706 7.68246 19.3704 7.98139 18.6241 7.98139C17.5891 7.98139 17.0346 7.82727 16.1919 7.46647L15.8505 7.3118L15.4878 9.48481C16.0958 9.75226 17.2159 9.9896 18.3788 10C21.0988 10 22.8696 8.7023 22.8906 6.69409C22.9009 5.59212 22.2082 4.74774 20.7146 4.05776C19.808 3.61484 19.2527 3.31618 19.2527 2.86299C19.2634 2.451 19.7224 2.02902 20.7458 2.02902C21.5886 2.00835 22.2077 2.20394 22.6768 2.39967L22.9112 2.50246L23.2638 0.412127Z" fill="#00579F"/>
<path d="M26.7088 6.4257C26.9223 5.86958 27.7438 3.71724 27.7438 3.71724C27.733 3.7379 27.9568 3.15085 28.0848 2.79046L28.266 3.62457C28.266 3.62457 28.7569 5.94171 28.8635 6.4257C28.4583 6.4257 27.2208 6.4257 26.7088 6.4257ZM29.9086 0.174805H27.9035C27.2852 0.174805 26.8154 0.349729 26.5487 0.97798L22.6982 9.85493H25.4182C25.4182 9.85493 25.866 8.66016 25.9622 8.40284C26.2606 8.40284 28.9066 8.40284 29.2904 8.40284C29.3649 8.7427 29.5997 9.85493 29.5997 9.85493H31.9999L29.9086 0.174805Z" fill="#00579F"/>
<path d="M9.10945 0.174805L6.57081 6.77582L6.2934 5.43706C5.82405 3.8923 4.3521 2.21395 2.70947 1.37943L5.03478 9.8448H7.77598L11.8505 0.174805H9.10945Z" fill="#00579F"/>
<path d="M4.2133 0.174805H0.0426673L0 0.370397C3.25336 1.17371 5.40799 3.11006 6.29323 5.43747L5.38659 0.98852C5.23732 0.37026 4.77861 0.195199 4.2133 0.174805Z" fill="#FAA61A"/>
</g>
<defs>
<clipPath id="clip0_496_5783">
<rect width="32" height="10" fill="white"/>
</clipPath>
</defs>
</svg>
